<svg width="24" height="24" viewBox="0 0 24 24" fill="none" xmlns="http://www.w3.org/2000/svg">
<path d="M11.3924 4.185H12.6524C13.0735 4.18592 13.4933 4.23117 13.9049 4.32C14.1074 4.365 14.3099 4.425 14.4974 4.485V4.215C14.4974 3.88702 14.4328 3.56226 14.3073 3.25925C14.1818 2.95624 13.9979 2.68092 13.7659 2.449C13.534 2.21709 13.2587 2.03312 12.9557 1.90761C12.6527 1.7821 12.3279 1.7175 11.9999 1.7175C11.672 1.7175 11.3472 1.7821 11.0442 1.90761C10.7412 2.03312 10.4659 2.21709 10.2339 2.449C10.002 2.68092 9.81806 2.95624 9.69255 3.25925C9.56704 3.56226 9.50244 3.88702 9.50244 4.215V4.5C9.69375 4.43268 9.88915 4.37757 10.0874 4.335C10.5156 4.23739 10.9533 4.18709 11.3924 4.185Z" fill="black"/>
<path d="M13.9499 20.5275C13.9486 20.3188 13.9158 20.1114 13.8524 19.9125H10.1024C10.0057 20.2187 9.98048 20.5429 10.0287 20.8604C10.0769 21.1778 10.1972 21.48 10.3805 21.7437C10.5638 22.0073 10.805 22.2254 11.0858 22.3813C11.3665 22.5371 11.6793 22.6265 11.9999 22.6425C12.5371 22.6153 13.0422 22.3785 13.4067 21.9831C13.7713 21.5877 13.9663 21.0651 13.9499 20.5275Z" fill="black"/>
<path d="M14.4673 4.275C14.2731 4.20863 14.0753 4.15354 13.8748 4.11C13.4632 4.02117 13.0434 3.97593 12.6223 3.975H11.3623C10.9234 3.97463 10.4858 4.02241 10.0573 4.1175C9.85478 4.1625 9.65978 4.2225 9.47228 4.2825C8.34387 4.64187 7.35812 5.34912 6.65622 6.30295C5.95432 7.25678 5.57227 8.40827 5.56478 9.5925V14.9325C4.95909 14.9395 4.38098 15.1867 3.95761 15.62C3.53425 16.0532 3.30032 16.6368 3.30728 17.2425C3.31424 17.8482 3.56153 18.4263 3.99474 18.8497C4.42795 19.273 5.01159 19.507 5.61728 19.5H18.3673C18.6667 19.503 18.9638 19.4469 19.2415 19.3351C19.5193 19.2232 19.7723 19.0577 19.9861 18.8481C20.1999 18.6385 20.3703 18.3888 20.4876 18.1133C20.6049 17.8378 20.6668 17.5419 20.6698 17.2425C20.6727 16.9431 20.6167 16.646 20.5048 16.3683C20.393 16.0905 20.2275 15.8375 20.0179 15.6237C19.8083 15.4099 19.5586 15.2395 19.2831 15.1222C19.0076 15.0049 18.7117 14.943 18.4123 14.94V9.5925C18.3947 8.4046 18.0044 7.25223 17.2966 6.29811C16.5887 5.34399 15.599 4.63631 14.4673 4.275Z" fill="black"/>
</svg>
