<svg width="24" height="24" viewBox="0 0 24 24" fill="none" xmlns="http://www.w3.org/2000/svg">
<path d="M7 13.4286H2.71429C2.3198 13.4286 2 13.7484 2 14.1429V21.2857C2 21.6802 2.3198 22 2.71429 22H7C7.39449 22 7.71429 21.6802 7.71429 21.2857V14.1429C7.71429 13.7484 7.39449 13.4286 7 13.4286Z" fill="black"/>
<path d="M21.2856 7.71429H16.9999C16.6054 7.71429 16.2856 8.03408 16.2856 8.42857V21.2857C16.2856 21.6802 16.6054 22 16.9999 22H21.2856C21.6801 22 21.9999 21.6802 21.9999 21.2857V8.42857C21.9999 8.03408 21.6801 7.71429 21.2856 7.71429Z" fill="black"/>
<path d="M14.1431 2H9.85735C9.46286 2 9.14307 2.3198 9.14307 2.71429V21.2857C9.14307 21.6802 9.46286 22 9.85735 22H14.1431C14.5376 22 14.8574 21.6802 14.8574 21.2857V2.71429C14.8574 2.3198 14.5376 2 14.1431 2Z" fill="black"/>
</svg>
