<svg width="19" height="13" viewBox="0 0 19 13" fill="none" xmlns="http://www.w3.org/2000/svg">
<path d="M6.92628 4.96346C6.97428 4.96346 7.02228 4.93946 7.05028 4.89946C7.09428 4.83546 7.08228 4.74746 7.02228 4.69546L6.30628 4.12746L7.17028 4.62746C7.23828 4.66746 7.32628 4.64746 7.37028 4.58346C7.41428 4.51946 7.39828 4.42746 7.33828 4.37946L6.77028 3.94346L7.45828 4.34346C7.52628 4.38346 7.61028 4.36346 7.65828 4.29946C7.70228 4.23546 7.69028 4.14746 7.63028 4.09946L6.70228 3.32346L7.83028 3.97146C7.89828 4.01146 7.98228 3.99146 8.02628 3.92746C8.07028 3.86346 8.06228 3.77546 8.00228 3.72746L7.00228 2.87146L8.22228 3.57546C8.29028 3.61546 8.37828 3.59546 8.42228 3.53146C8.46628 3.46746 8.45428 3.37946 8.39028 3.33146L7.69828 2.78346L8.53828 3.26746C8.60228 3.30746 8.69028 3.28746 8.73428 3.22346C8.77828 3.15946 8.77028 3.07146 8.71028 3.02346L7.74628 2.20746L8.52228 2.65546C8.58628 2.69146 8.67428 2.67546 8.71828 2.61146C8.76228 2.55146 8.75428 2.46346 8.69828 2.41146L7.27028 1.10346C7.29028 1.03546 7.26628 0.959456 7.20228 0.923456L6.83828 0.715456C6.77428 0.679456 6.68628 0.695456 6.64228 0.759456C6.59828 0.819456 6.60628 0.907456 6.66228 0.959456L7.48228 1.71146L6.44228 1.11146C6.37428 1.07146 6.29028 1.09146 6.24628 1.15546C6.20228 1.21946 6.21028 1.30746 6.27028 1.35546L7.23428 2.17146L6.06228 1.49146C5.99428 1.45146 5.90628 1.47146 5.86228 1.53946C5.81828 1.60346 5.83028 1.69146 5.89428 1.73946L6.59028 2.29146L5.75028 1.80346C5.68628 1.76346 5.59828 1.78346 5.55428 1.84746C5.51028 1.91146 5.51828 1.99946 5.57828 2.04746L6.57828 2.90346L5.35828 2.19946C5.29028 2.15946 5.20628 2.17946 5.15828 2.24346C5.11428 2.30746 5.12628 2.39546 5.18628 2.44346L6.11428 3.21946L4.98628 2.57146C4.91828 2.53146 4.83028 2.55146 4.78628 2.61946C4.74228 2.68346 4.75828 2.77146 4.81828 2.81946L5.38628 3.25546L4.69828 2.85946C4.63028 2.81946 4.54228 2.83946 4.49828 2.90346C4.45428 2.96746 4.46628 3.05546 4.53028 3.10346L5.24628 3.67146L4.38228 3.17146C4.31028 3.12746 4.21828 3.15546 4.17828 3.22746C4.13828 3.29946 4.16228 3.39146 4.23428 3.43146L6.86228 4.94746C6.88628 4.95946 6.91028 4.96746 6.93828 4.96746L6.92628 4.96346Z" fill="#E56363"/>
<path d="M6.93824 12.3035C6.98624 12.3035 7.03024 12.2835 7.05824 12.2395C7.10224 12.1755 7.09424 12.0915 7.03424 12.0395L6.52624 11.5955L7.17424 11.9675C7.24224 12.0075 7.33024 11.9875 7.37424 11.9235C7.41824 11.8595 7.40224 11.7675 7.34224 11.7195L5.58224 10.3715L7.60624 11.5395C7.67424 11.5795 7.76224 11.5595 7.80624 11.4915C7.85024 11.4235 7.83024 11.3355 7.76224 11.2875L5.82624 9.97145L7.95024 11.1955C8.02224 11.2355 8.11024 11.2115 8.15424 11.1435C8.19824 11.0755 8.17424 10.9835 8.10624 10.9395L5.82624 9.45145L8.27424 10.8675C8.34624 10.9075 8.43424 10.8835 8.47824 10.8155C8.52224 10.7475 8.50224 10.6555 8.43424 10.6115L5.19424 8.43545L8.69024 10.4515C8.76224 10.4915 8.85024 10.4715 8.89424 10.3995C8.93824 10.3315 8.91424 10.2395 8.85024 10.1955L6.47824 8.64745L8.08624 9.57545C8.15824 9.61545 8.24624 9.59145 8.29024 9.52345C8.33424 9.45545 8.31424 9.36345 8.24624 9.31945L6.33824 8.05945L6.89024 8.37945C6.96224 8.41945 7.05024 8.39545 7.09024 8.32745C7.13424 8.25945 7.11424 8.17145 7.04624 8.12345L6.06624 7.46345L7.21824 8.12745C7.29024 8.16745 7.37824 8.14745 7.41824 8.07945C7.46224 8.01145 7.44224 7.91945 7.37824 7.87545L5.73824 6.73545L8.15424 8.13145C8.22624 8.17145 8.31424 8.15145 8.35424 8.07945C8.39824 8.01145 8.37824 7.92345 8.31024 7.87545L6.38224 6.55145L9.11024 8.12745C9.18224 8.16745 9.27024 8.14745 9.31424 8.07545C9.35824 8.00745 9.33424 7.91545 9.27024 7.87145L8.23024 7.19545L9.84224 8.12345C9.91024 8.16345 10.0022 8.14345 10.0422 8.07145C10.0862 8.00345 10.0662 7.91145 9.99824 7.86745L8.39424 6.81945L10.6502 8.11945C10.7222 8.15945 10.8102 8.13945 10.8542 8.06745C10.8982 7.99545 10.8742 7.90745 10.8062 7.86345L9.69824 7.15545L11.3662 8.11945C11.4342 8.15945 11.5222 8.13945 11.5662 8.07145C11.6102 8.00345 11.5942 7.91545 11.5302 7.86745L9.82224 6.63945L12.3822 8.11945C12.4542 8.15945 12.5422 8.13945 12.5822 8.06745C12.6262 7.99945 12.6062 7.91145 12.5382 7.86345L11.3782 7.06745L13.1982 8.11545C13.2662 8.15545 13.3542 8.13545 13.3982 8.06745C13.4422 7.99945 13.4262 7.91145 13.3622 7.86345L11.4782 6.47145L14.3222 8.11145C14.3902 8.15145 14.4782 8.13145 14.5222 8.06345C14.5662 7.99545 14.5462 7.90345 14.4822 7.85945L13.1182 6.91145L15.1982 8.11145C15.2662 8.15145 15.3582 8.13145 15.3982 8.05945C15.4422 7.99145 15.4222 7.90345 15.3542 7.85545L14.2462 7.09545L15.9982 8.10745C16.0662 8.14745 16.1582 8.12745 16.1982 8.05945C16.2422 7.99145 16.2262 7.90345 16.1622 7.85545L14.3862 6.56745L17.0502 8.10745C17.1222 8.14745 17.2102 8.12745 17.2542 8.05545C17.2982 7.98745 17.2782 7.89545 17.2102 7.85145L16.4782 7.35945L17.7702 8.10345C17.8382 8.14345 17.9302 8.12345 17.9702 8.05145C18.0142 7.98345 17.9942 7.89145 17.9262 7.84745L17.1542 7.32745L18.3462 8.01545C18.4182 8.05545 18.5062 8.03145 18.5462 7.96345C18.5902 7.89545 18.5702 7.80745 18.5022 7.75945L17.9182 7.36745L18.4342 7.66345C18.5062 7.70745 18.5942 7.68345 18.6382 7.61545C18.6822 7.54745 18.6622 7.45945 18.5942 7.41145L18.0462 7.03545L18.4302 7.25945C18.5022 7.29945 18.5902 7.27945 18.6302 7.21145C18.6742 7.14345 18.6582 7.05545 18.5902 7.00745L18.3062 6.80745L18.4262 6.87945C18.4942 6.91945 18.5822 6.89945 18.6262 6.83145C18.6702 6.76345 18.6542 6.67545 18.5942 6.62745L18.1622 6.29945L18.4262 6.45145C18.4902 6.48745 18.5742 6.47145 18.6182 6.41545C18.6662 6.35545 18.6622 6.27145 18.6062 6.21945L18.0662 5.67145L18.4222 5.87545C18.4822 5.90745 18.5502 5.89945 18.6022 5.85545C18.6502 5.81145 18.6622 5.73945 18.6342 5.67945L18.4702 5.33945C18.5262 5.34345 18.5822 5.31945 18.6142 5.26345C18.6582 5.19145 18.6302 5.09945 18.5582 5.05945L18.2102 4.85945C18.1542 4.82745 18.0822 4.83545 18.0342 4.87945C17.9862 4.92345 17.9702 4.99545 18.0022 5.05545L18.1542 5.37545L17.2662 4.85945C17.2022 4.82345 17.1182 4.83945 17.0702 4.89945C17.0262 4.95945 17.0302 5.04345 17.0822 5.09545L17.6222 5.64345L16.2662 4.85945C16.1982 4.81945 16.1102 4.83945 16.0662 4.90745C16.0222 4.97545 16.0342 5.06345 16.0982 5.11145L16.5302 5.43945L15.5302 4.85945C15.4582 4.81945 15.3702 4.84345 15.3302 4.90745C15.2862 4.97545 15.3022 5.06745 15.3702 5.11145L15.6542 5.31145L14.8702 4.85945C14.7982 4.81945 14.7102 4.84345 14.6702 4.90745C14.6262 4.97545 14.6462 5.06745 14.7142 5.11145L15.2622 5.48745L14.1702 4.85545C14.1022 4.81545 14.0102 4.83945 13.9662 4.90745C13.9222 4.97545 13.9462 5.06345 14.0102 5.11145L14.5942 5.50345L13.4742 4.85545C13.4062 4.81545 13.3142 4.83945 13.2742 4.90745C13.2302 4.97545 13.2502 5.06345 13.3182 5.11145L14.0902 5.63145L12.7502 4.85545C12.6782 4.81545 12.5902 4.83945 12.5462 4.90745C12.5022 4.97545 12.5222 5.06345 12.5902 5.11145L13.3222 5.60345L12.0302 4.85945C11.9622 4.81945 11.8742 4.83945 11.8302 4.90745C11.7862 4.97145 11.8022 5.06345 11.8662 5.11145L13.6422 6.39945L10.9782 4.85945C10.9062 4.81945 10.8182 4.83945 10.7782 4.90745C10.7342 4.97545 10.7542 5.06345 10.8222 5.11145L11.9302 5.87145L10.1782 4.85945C10.1102 4.81945 10.0222 4.83945 9.97824 4.90745C9.93424 4.97545 9.95424 5.06745 10.0182 5.11145L11.3822 6.05945L9.30224 4.85945C9.23424 4.81945 9.14624 4.83945 9.10224 4.90745C9.05824 4.97545 9.07424 5.06345 9.13824 5.11145L11.0222 6.50345L8.17824 4.85945C8.10624 4.81945 8.02224 4.84345 7.97824 4.90745C7.93824 4.97545 7.95424 5.06745 8.02224 5.11145L9.18624 5.91145L7.36624 4.85945C7.29824 4.81945 7.21024 4.83945 7.16624 4.90745C7.12224 4.97545 7.13824 5.06345 7.20624 5.11145L8.91024 6.33545L3.99824 3.49945C3.92624 3.45945 3.83824 3.48345 3.79424 3.55145C3.75024 3.61945 3.77424 3.71145 3.84224 3.75545L4.95024 4.46345L3.73424 3.76345C3.66224 3.72345 3.57424 3.74745 3.53024 3.81545C3.48624 3.88345 3.50624 3.97545 3.57424 4.01945L5.17824 5.06745L3.43424 4.05945C3.36224 4.01945 3.27424 4.03945 3.23024 4.11145C3.18624 4.17945 3.21024 4.27145 3.27424 4.31545L4.31424 4.98745L3.16624 4.32345C3.09424 4.28345 3.00624 4.30345 2.96224 4.37145C2.91824 4.43945 2.93824 4.53145 3.00624 4.57545L4.93424 5.89945L2.81424 4.67545C2.74624 4.63545 2.65424 4.65545 2.61424 4.72745C2.57024 4.79545 2.59024 4.88345 2.65424 4.93145L4.29424 6.07145L2.47424 5.01945C2.40624 4.97945 2.31424 5.00345 2.27424 5.07145C2.23024 5.13945 2.25024 5.22745 2.31824 5.27545L3.29824 5.93945L2.19824 5.30345C2.12624 5.26345 2.03824 5.28745 1.99424 5.35545C1.95424 5.42345 1.97024 5.51545 2.03824 5.55945L3.94624 6.82345L1.87424 5.62745C1.80624 5.58745 1.71424 5.60745 1.67024 5.67545C1.62624 5.74745 1.64624 5.83545 1.71424 5.87945L4.08624 7.42745L1.54224 5.95945C1.47424 5.91945 1.38224 5.94345 1.33824 6.01145C1.29424 6.07945 1.31424 6.16745 1.38224 6.21545L4.62224 8.39545L1.22624 6.43545C1.15824 6.39545 1.06624 6.41545 1.02224 6.48745C0.978237 6.55545 1.00224 6.64745 1.06624 6.69145L3.34624 8.17945L2.43424 7.65545C2.36224 7.61545 2.27424 7.63545 2.23424 7.70745C2.19024 7.77545 2.21024 7.86345 2.27424 7.91145L4.21024 9.22745L3.72224 8.94745C3.65424 8.90745 3.56624 8.92745 3.52224 8.99145C3.47824 9.05545 3.49424 9.14745 3.55824 9.19545L5.31824 10.5435C5.25424 10.5115 5.17424 10.5315 5.13024 10.5915C5.08624 10.6555 5.09424 10.7395 5.15424 10.7915L6.28624 11.7795C6.25024 11.8515 6.27824 11.9355 6.34624 11.9755L6.84224 12.2635C6.86624 12.2795 6.89024 12.2835 6.91824 12.2835L6.93824 12.3035Z" fill="#E56363"/>
<path d="M12.6773 8.25347C10.9004 8.23719 9.12529 8.22093 7.35137 8.2582C7.64061 8.54294 7.89228 8.77669 8.1086 8.9776C8.25438 9.113 8.38411 9.23349 8.49847 9.34464C8.6537 9.4955 8.77967 9.62848 8.8706 9.75307C8.96179 9.878 9.02237 10.0006 9.03891 10.1309C9.07243 10.3947 8.92021 10.6421 8.6387 10.9501C8.41974 11.1896 8.10464 11.4837 7.69164 11.8692C7.56693 11.9855 7.43331 12.1103 7.29071 12.2443L7.29007 12.2449C7.16085 12.3643 6.99739 12.3865 6.82734 12.3484C6.66092 12.3112 6.47924 12.215 6.29155 12.0847C5.91512 11.8233 5.48425 11.4026 5.05643 10.9485C4.78359 10.659 4.50848 10.3519 4.24754 10.0606C4.09927 9.89513 3.95557 9.73474 3.81946 9.58556C3.63076 9.37874 3.45625 9.19299 3.30217 9.04226C3.14692 8.89039 3.01704 8.77873 2.91718 8.71625L2.90316 8.70749L2.89271 8.69468C2.47853 8.18681 2.08153 7.83749 1.75471 7.56433C1.7092 7.5263 1.66475 7.48949 1.62164 7.45379C1.51092 7.36212 1.40905 7.27777 1.32101 7.19886C1.19864 7.08918 1.09503 6.98317 1.02469 6.87191C0.952763 6.75815 0.91436 6.63686 0.925627 6.50021C0.93667 6.36629 0.994587 6.22818 1.09482 6.07747C1.29351 5.77872 1.67975 5.40001 2.29662 4.86399L2.29648 4.86382L2.30177 4.85981C2.60924 4.62652 2.97037 4.26447 3.36249 3.84368C3.558 3.63386 3.76009 3.41068 3.96607 3.18305L3.9826 3.16478C4.18309 2.9432 4.38714 2.7177 4.59139 2.49747C5.0107 2.04537 5.43357 1.61255 5.83328 1.27747C6.22987 0.945002 6.61685 0.697154 6.96408 0.633133L7.0154 0.623671L7.05252 0.660361C7.49046 1.09331 7.85787 1.42231 8.15487 1.68826C8.2733 1.7943 8.38053 1.89032 8.47657 1.97891C8.64364 2.13301 8.77884 2.26647 8.87637 2.38998C8.97401 2.51362 9.04004 2.63479 9.0587 2.76477C9.09647 3.02796 8.93346 3.27402 8.64108 3.58794C8.4548 3.78794 8.2011 4.02991 7.88043 4.33575C7.73743 4.47213 7.58113 4.62121 7.41155 4.78493C8.82913 4.79257 10.2498 4.78757 11.6708 4.78257C13.8936 4.77475 16.1174 4.76692 18.332 4.80749L18.3564 4.80794L18.3778 4.81953C18.8717 5.08686 18.9281 5.62422 18.9026 6.14636C18.8946 6.31004 18.8778 6.48174 18.8614 6.64906C18.8515 6.7494 18.8419 6.84815 18.8343 6.94267C18.8137 7.20132 18.8082 7.43623 18.8482 7.63142L18.7743 7.64655L18.8502 7.64748V7.65148L18.8501 7.65148C18.8454 7.83252 18.7926 7.98175 18.682 8.08656C18.5722 8.1906 18.4202 8.23687 18.246 8.24341L18.246 8.24341L18.2446 8.24345C16.389 8.28749 14.5326 8.27047 12.6782 8.25348L12.6773 8.25347ZM18.2479 7.35919C18.2529 7.24719 18.243 7.12056 18.2222 6.98518L18.2137 6.95354C18.1969 6.89128 18.1909 6.81489 18.1899 6.73458C18.1889 6.65298 18.1931 6.56086 18.1993 6.46451C18.2041 6.39056 18.21 6.31477 18.216 6.23828C18.2259 6.11153 18.236 5.98282 18.2413 5.85727C18.2498 5.65542 18.2444 5.48262 18.2108 5.36686C18.1942 5.30959 18.1736 5.27725 18.1546 5.26066C18.1394 5.24734 18.1183 5.23779 18.0785 5.24271L18.0786 5.24348H18.0662H6.82221C6.79095 5.24348 6.74605 5.23427 6.70503 5.22291C6.66116 5.21077 6.60956 5.19275 6.56303 5.16919C6.52059 5.14769 6.46524 5.11327 6.43444 5.06074C6.41722 5.03136 6.40636 4.99386 6.41341 4.95194C6.42007 4.91234 6.44084 4.88003 6.4655 4.85479C6.97819 4.28806 7.41511 3.90728 7.74219 3.62223L7.763 3.60409C7.92856 3.45979 8.06161 3.34305 8.16247 3.23853C8.26374 3.1336 8.3246 3.04883 8.3534 2.97084C8.40493 2.83128 8.36664 2.67352 8.11772 2.37788C7.88032 2.09593 7.4787 1.71998 6.87486 1.15658C5.4087 2.7145 4.25276 3.77032 3.4119 4.53834C3.28344 4.65567 3.16234 4.76628 3.04861 4.87093C2.61258 5.27219 2.2894 5.58193 2.07345 5.84683C1.85728 6.11199 1.75992 6.31888 1.75467 6.51416C1.74946 6.70858 1.83504 6.91415 2.03926 7.17811C2.24364 7.44225 2.55616 7.75158 2.98369 8.15267C3.12964 8.28959 3.28847 8.43673 3.46017 8.5958C4.2783 9.35373 5.38878 10.3825 6.7911 11.8669C6.88753 11.778 6.97915 11.6938 7.0661 11.6139C7.54366 11.1749 7.88031 10.8654 8.09808 10.6253C8.36989 10.3256 8.42053 10.171 8.37916 10.037C8.35624 9.96271 8.30151 9.88059 8.20417 9.77635C8.1073 9.6726 7.97676 9.55561 7.81169 9.40931C7.80005 9.39899 7.78825 9.38853 7.77629 9.37794C7.45109 9.08987 7.01282 8.70162 6.49186 8.12234L6.3692 7.98595L6.55029 7.95675C8.16035 7.69713 10.0347 7.69751 11.9444 7.74C12.3221 7.74841 12.7012 7.75846 13.08 7.7685C14.6201 7.80933 16.1557 7.85004 17.5773 7.7796L17.592 7.77887L17.6063 7.78243C17.7816 7.826 17.9071 7.82503 17.9956 7.79947C18.0807 7.77489 18.1381 7.72588 18.1776 7.65585C18.2188 7.58281 18.2423 7.48322 18.2479 7.35919Z" fill="#262626" stroke="#262626" stroke-width="0.2"/>
</svg>
