<svg width="24" height="24" viewBox="0 0 24 24" fill="none" xmlns="http://www.w3.org/2000/svg">
<path fill-rule="evenodd" clip-rule="evenodd" d="M9.33626 19.764C9.16921 19.2628 8.78789 18.8688 8.32634 18.6118C8.25455 18.5719 8.18348 18.5308 8.11315 18.4885C7.65969 18.2163 7.12723 18.0826 6.60907 18.1887L5.50744 18.4141C4.73434 18.5723 3.94674 18.2181 3.55218 17.5347L2.98295 16.5487C2.58839 15.8653 2.6754 15.0061 3.19895 14.4157L3.94606 13.5732C4.29615 13.1784 4.44745 12.6518 4.43909 12.1243C4.43778 12.0414 4.43778 11.9586 4.43909 11.8758C4.44744 11.3482 4.29615 10.8217 3.94606 10.4269L3.19895 9.5844C2.6754 8.99397 2.58839 8.13469 2.98295 7.45131L3.55218 6.46535C3.94674 5.78197 4.73434 5.42777 5.50744 5.58599L6.60899 5.8114C7.12717 5.91736 7.65962 5.78371 8.1131 5.51147C8.18344 5.4693 8.25453 5.42814 8.32634 5.38817C8.78789 5.13114 9.16921 4.73715 9.33626 4.23601L9.69153 3.17021C9.94106 2.42166 10.6417 1.91666 11.4308 1.91666H12.5692C13.3584 1.91666 14.059 2.42166 14.3085 3.17021L14.6637 4.23601C14.8308 4.73715 15.2122 5.13114 15.6737 5.38817C15.7455 5.42814 15.8166 5.4693 15.8869 5.51147C16.3404 5.78371 16.8728 5.91736 17.391 5.8114L18.4925 5.58599C19.2657 5.42777 20.0533 5.78197 20.4478 6.46535L21.017 7.45131C21.4116 8.13469 21.3246 8.99397 20.801 9.5844L20.054 10.4268C19.7038 10.8216 19.5526 11.3482 19.5609 11.8757C19.5622 11.9586 19.5622 12.0414 19.5609 12.1243C19.5526 12.6519 19.7038 13.1785 20.054 13.5732L20.801 14.4157C21.3246 15.0061 21.4116 15.8653 21.017 16.5487L20.4478 17.5347C20.0533 18.2181 19.2657 18.5723 18.4925 18.4141L17.391 18.1887C16.8728 18.0826 16.3403 18.2163 15.8868 18.4885C15.8165 18.5308 15.7455 18.5719 15.6737 18.6118C15.2122 18.8688 14.8308 19.2628 14.6637 19.764L14.3085 20.8298C14.059 21.5784 13.3584 22.0833 12.5692 22.0833H11.4308C10.6417 22.0833 9.94106 21.5784 9.69153 20.8298L9.33626 19.764ZM14.7501 12C14.7501 10.4812 13.5188 9.25 12.0001 9.25C10.4812 9.25 9.25006 10.4812 9.25006 12C9.25006 13.5188 10.4812 14.75 12.0001 14.75C13.5188 14.75 14.7501 13.5188 14.7501 12Z" fill="black"/>
</svg>
